<svg width="69" height="69" viewBox="0 0 69 69" fill="none" xmlns="http://www.w3.org/2000/svg">
<path d="M23.1425 37.1288L55.6693 8.66767C55.6693 8.66767 58.7187 5.61827 61.7681 8.66767C64.8175 11.7171 61.7681 14.7664 61.7681 14.7664L33.307 47.2933L23.1425 37.1288Z" stroke="white" stroke-width="2" stroke-linejoin="round"/>
<path d="M32.2919 30.0134L40.4235 38.1452" stroke="white" stroke-width="2" stroke-linecap="round" stroke-linejoin="round"/>
<path d="M7.89666 44.2436L23.1436 37.1283L33.3083 47.293L26.193 62.54C26.193 62.54 19.0778 63.5564 12.979 57.4577C6.88019 51.3588 7.89666 44.2436 7.89666 44.2436Z" stroke="white" stroke-width="2" stroke-linejoin="round"/>
<path d="M9.93005 52.3752L17.0453 49.3258" stroke="white" stroke-width="2" stroke-linecap="round" stroke-linejoin="round"/>
<path d="M18.0626 60.5074L20.0955 56.4415" stroke="white" stroke-width="2" stroke-linecap="round" stroke-linejoin="round"/>
<path d="M27.2106 33.5708L31.2765 30.0131L35.3424 26.4554" stroke="white" stroke-width="2" stroke-linejoin="round"/>
<path d="M43.9813 35.0953L40.4237 39.1612L36.8661 43.227" stroke="white" stroke-width="2" stroke-linejoin="round"/>
</svg>
